<?xml version="1.0" encoding="utf-8"?>
<svg width="8px" height="8px" viewBox="0 0 8 8" version="1.1" xmlns:xlink="http://www.w3.org/1999/xlink" xmlns="http://www.w3.org/2000/svg">
  <defs>
    <path d="M0 0L8 0L8 8L0 8L0 0Z" id="path_1" />
    <clipPath id="mask_1">
      <use xlink:href="#path_1" />
    </clipPath>
  </defs>
  <g id="Github-icon">
    <path d="M0 0L8 0L8 8L0 8L0 0Z" id="Background" fill="none" fill-rule="evenodd" stroke="none" />
    <g clip-path="url(#mask_1)">
      <path d="M3.99996 0.800003C2.23276 0.800003 0.799957 2.2328 0.799957 4C0.799957 5.49947 1.83249 6.75414 3.22449 7.10134C3.20956 7.05814 3.19996 7.00801 3.19996 6.94587L3.19996 6.39894C3.07009 6.39894 2.85249 6.39894 2.79782 6.39894C2.57889 6.39894 2.38422 6.3048 2.28982 6.12987C2.18502 5.93547 2.16689 5.63814 1.90716 5.45627C1.83009 5.39574 1.88876 5.32667 1.97756 5.336C2.14156 5.3824 2.27756 5.49494 2.40556 5.66187C2.53302 5.82907 2.59302 5.86694 2.83116 5.86694C2.94662 5.86694 3.11942 5.86027 3.28209 5.83467C3.36956 5.61254 3.52076 5.408 3.70556 5.31147C2.63996 5.20187 2.13142 4.67174 2.13142 3.952C2.13142 3.64214 2.26342 3.3424 2.48769 3.08987C2.41409 2.8392 2.32156 2.328 2.51596 2.13334C2.99542 2.13334 3.28529 2.44427 3.35489 2.52827C3.59382 2.4464 3.85622 2.4 4.13196 2.4C4.40822 2.4 4.67169 2.4464 4.91116 2.5288C4.97996 2.44534 5.27009 2.13334 5.75062 2.13334C5.94582 2.32827 5.85222 2.8416 5.77782 3.09174C6.00076 3.34374 6.13196 3.64267 6.13196 3.952C6.13196 4.6712 5.62422 5.20107 4.56022 5.3112C4.85302 5.464 5.06662 5.89334 5.06662 6.2168L5.06662 6.94587C5.06662 6.97361 5.06049 6.99361 5.05729 7.01734C6.30422 6.58027 7.19996 5.39627 7.19996 4C7.19996 2.2328 5.76716 0.800003 3.99996 0.800003L3.99996 0.800003Z" id="Shape" fill="#FFFFFF" fill-rule="evenodd" stroke="none" />
    </g>
  </g>
</svg>