<svg height="8" viewBox="0 0 8 8" width="8" xmlns="http://www.w3.org/2000/svg" xmlns:xlink="http://www.w3.org/1999/xlink"><clipPath id="a"><path d="m0 0h8v8h-8z"/></clipPath><path d="m0 0h8v8h-8z" fill="none"/><g clip-path="url(#a)"><path d="m3.99996.800003c-1.7672 0-3.200003 1.432797-3.200003 3.199997 0 1.49947 1.032533 2.75414 2.424533 3.10134-.01493-.0432-.02453-.09333-.02453-.15547v-.54693c-.12987 0-.34747 0-.40214 0-.21893 0-.4136-.09414-.508-.26907-.1048-.1944-.12293-.49173-.38266-.6736-.07707-.06053-.0184-.1296.0704-.12027.164.0464.3.15894.428.32587.12746.1672.18746.20507.4256.20507.11546 0 .28826-.00667.45093-.03227.08747-.22213.23867-.42667.42347-.5232-1.0656-.1096-1.57414-.63973-1.57414-1.35947 0-.30986.132-.6096.35627-.86213-.0736-.25067-.16613-.76187.02827-.95653.47946 0 .76933.31093.83893.39493.23893-.08187.50133-.12827.77707-.12827.27626 0 .53973.0464.7792.1288.0688-.08346.35893-.39546.83946-.39546.1952.19493.1016.70826.0272.9584.22294.252.35414.55093.35414.86026 0 .7192-.50774 1.24907-1.57174 1.3592.2928.1528.5064.58214.5064.9056v.72907c0 .02774-.00613.04774-.00933.07147 1.24693-.43707 2.14267-1.62107 2.14267-3.01734 0-1.7672-1.4328-3.199997-3.2-3.199997z" fill="#fff" fill-rule="evenodd"/></g></svg>