<svg height="16" viewBox="0 0 16 16" width="16" xmlns="http://www.w3.org/2000/svg"><g fill-rule="evenodd"><path d="m0 0h16v16h-16z" fill-opacity=".011765"/><g transform="translate(1.000122 4)"><g transform="matrix(-1 0 0 1 14 3)"><path d="m0 0v.999981h.999983v.999979h.999987v.99998h-.999987v.99998h-.999983v.99998h2.99995v-.99998h.99998v.99998h2.99995v-.99998h-.99998v-.99998h-.99999v-.99998h.99999v-.999979h.99998v-.999981h-2.99995v.999981h-.99998v-.999981z" fill="#fda101"/><path d="m2.00021 3h-.99998v.99998h-.99998586v.99998h2.99994586v-1.99996z" fill="#fc4863"/><path d="m.00024414 0v.999981h.99998586v.999979h.99998v.99998h.99998v.99998h.99998v.99998h2.99995v-.99998h-.99998v-.99998h-.99998v-.99998h-.99999v-.999979h-.99998v-.999981z" fill="#f87022"/><path d="m.00024414 4h.99998586v.99998h-.99998586z" fill="#ff00ae"/><path d="m.00024414.999981v-.999981h.99998586v.999981zm.99999586.999999v-.99998h.99999v.99998zm1 1.00002v-1h.99999v1h.99998v.99998h-1.99997zm1.99988 1.99998v-.99998h.99998v.99998z" fill="#f84d22"/><path d="m5.00012 0h1.99997v.999981h-1.99997z" fill="#f8c822"/></g><path d="m3.99993 0v6.99986h-1.99996v-.99998h-1.99997v1.99996h5.9999v-7.99984z" fill="#596fff"/><path d="m3.00019 6.99998h-.99998v-.99998h-1.99996586v1.99996h2.99994586z" fill="#6159ff"/><path d="m4.00012.00048828v6.99986172h.99998v.99998h.99998v-7.99984172z" fill="#5985ff"/><path d="m4.00012 0v4.9999h.99998v.99998h.99999l-.00001-5.99988z" fill="#59a4ff"/><path d="m4.00013 0-.00001 2.99994h.99998v.99998h.99999v-3.99992z" fill="#59bdff"/><path d="m4.00013 0-.00001.99998h.99998v.99998h.99999v-1.99996z" fill="#59dbff"/><path d="m.00048828 7h.99998172v.99998h-.99998172z" fill="#8259ff"/></g></g></svg>